<?xml version="1.0" encoding="UTF-8"?>
<svg version="1.1" xmlns="http://www.w3.org/2000/svg" width="500" height="500">
<path d="M0 0 C5.3625 -0.04125 10.725 -0.0825 16.25 -0.125 C17.91579102 -0.14320801 19.58158203 -0.16141602 21.29785156 -0.18017578 C44.71031856 -0.33051283 44.71031856 -0.33051283 52 6 C54.9672653 10.45089796 54.76574646 14.78102898 54 20 C52.59186451 22.580764 51.18995122 23.97429513 49 26 C49.47050781 26.37769531 49.94101563 26.75539062 50.42578125 27.14453125 C53.42018153 30.67391124 53.31925046 35.5489453 54 40 C48.39 40 42.78 40 37 40 C35.58398438 36.53320312 35.58398438 36.53320312 34.16796875 33.06640625 C33.11596912 30.66627512 33.11596912 30.66627512 30 30 C27.93854893 29.931009 25.87498599 29.91532273 23.8125 29.9375 C22.72582031 29.94652344 21.63914062 29.95554688 20.51953125 29.96484375 C19.68808594 29.97644531 18.85664062 29.98804688 18 30 C17.67 33.3 17.34 36.6 17 40 C11.39 40 5.78 40 0 40 C0 26.8 0 13.6 0 0 Z M17 11 C17 13.31 17 15.62 17 18 C20.76700486 19.25882323 24.19696656 18.96221633 28.125 18.6875 C29.36507812 18.60886719 30.60515625 18.53023437 31.8828125 18.44921875 C35.09542532 18.30391952 35.09542532 18.30391952 37 16 C36.91428339 13.90708843 36.91428339 13.90708843 36 12 C32.23699626 10.74566542 28.72789091 10.89304578 24.8125 10.9375 C23.68811523 10.94426758 23.68811523 10.94426758 22.54101562 10.95117188 C20.69397617 10.96293646 18.84697787 10.98087135 17 11 Z " fill="#CB59FA" transform="translate(85,118)"/>
<path d="M0 0 C1.08007072 -0.00855011 1.08007072 -0.00855011 2.18196106 -0.01727295 C3.71789068 -0.02674972 5.25384087 -0.03326749 6.78979492 -0.03710938 C9.090073 -0.04664915 11.3893916 -0.07757119 13.68945312 -0.109375 C36.89440172 -0.28404435 36.89440172 -0.28404435 43.78198242 5.62792969 C47.22871028 9.70875643 47.31060767 12.98787277 46.95703125 18.203125 C45.59618677 22.54081677 44.01807534 24.45105848 40.08203125 26.515625 C35.44060749 28.67252192 30.96841776 29.33202921 25.875 29.30078125 C24.94365234 29.29755859 24.01230469 29.29433594 23.05273438 29.29101562 C22.09302734 29.28263672 21.13332031 29.27425781 20.14453125 29.265625 C19.16548828 29.26111328 18.18644531 29.25660156 17.17773438 29.25195312 C14.77080694 29.24021202 12.36391112 29.22227789 9.95703125 29.203125 C9.95703125 32.833125 9.95703125 36.463125 9.95703125 40.203125 C4.01703125 40.203125 -1.92296875 40.203125 -8.04296875 40.203125 C-8.06587609 34.6671851 -8.08580366 29.13140845 -8.09790039 23.59545898 C-8.10294119 21.7106877 -8.10977373 19.82592035 -8.1184082 17.94116211 C-8.13048492 15.23810864 -8.13619943 12.53510669 -8.140625 9.83203125 C-8.14578629 8.98411514 -8.15094757 8.13619904 -8.15626526 7.2625885 C-8.1564607 5.24241432 -8.10503086 3.22234566 -8.04296875 1.203125 C-6.12784665 -0.7119971 -2.60921646 0.01596372 0 0 Z M9.95703125 11.203125 C9.95703125 13.513125 9.95703125 15.823125 9.95703125 18.203125 C13.58606757 19.41280377 16.21162344 19.11952643 20.01953125 18.828125 C21.26863281 18.73789063 22.51773438 18.64765625 23.8046875 18.5546875 C26.85457603 18.39823698 26.85457603 18.39823698 28.95703125 17.203125 C28.61258244 14.73045735 28.61258244 14.73045735 27.95703125 12.203125 C24.76878557 10.60900216 21.32806463 11.10137765 17.83203125 11.140625 C16.70087891 11.14739258 16.70087891 11.14739258 15.546875 11.15429688 C13.68355998 11.16609001 11.8202857 11.18402558 9.95703125 11.203125 Z " fill="#C95BF8" transform="translate(200.04296875,117.796875)"/>
<path d="M0 0 C15.18 0 30.36 0 46 0 C46 3.63 46 7.26 46 11 C36.43 11 26.86 11 17 11 C17.33 12.32 17.66 13.64 18 15 C25.59 15.33 33.18 15.66 41 16 C41 18.97 41 21.94 41 25 C33.08 25 25.16 25 17 25 C17 26.65 17 28.3 17 30 C27.23 30 37.46 30 48 30 C48 33.3 48 36.6 48 40 C32.16 40 16.32 40 0 40 C0 26.8 0 13.6 0 0 Z " fill="#C95BF8" transform="translate(398,118)"/>
<path d="M0 0 C5.548125 -0.04125 11.09625 -0.0825 16.8125 -0.125 C18.53960205 -0.14320801 20.2667041 -0.16141602 22.04614258 -0.18017578 C44.53107401 -0.31986045 44.53107401 -0.31986045 52 6 C54.97861692 10.46792538 54.73309522 14.76360556 54 20 C52.33800466 23.48881666 49.97317217 25.47598422 46.5625 27.3125 C40.30353743 28.99173386 34.06528022 29.28228809 27.625 29.5625 C26.69816406 29.60568359 25.77132813 29.64886719 24.81640625 29.69335938 C22.54441649 29.79876096 20.27222587 29.89981743 18 30 C17.67 33.3 17.34 36.6 17 40 C11.39 40 5.78 40 0 40 C0 26.8 0 13.6 0 0 Z M17 11 C17 13.31 17 15.62 17 18 C20.76700486 19.25882323 24.19696656 18.96221633 28.125 18.6875 C29.36507813 18.60886719 30.60515625 18.53023437 31.8828125 18.44921875 C35.09542532 18.30391952 35.09542532 18.30391952 37 16 C36.83333333 13.91666667 36.83333333 13.91666667 36 12 C32.69005287 10.34502644 29.00877 10.89915665 25.375 10.9375 C24.17230469 10.94426758 24.17230469 10.94426758 22.9453125 10.95117188 C20.96350994 10.96296832 18.98174567 10.98090395 17 11 Z " fill="#CA5BF8" transform="translate(264,118)"/>
<path d="M0 0 C5.61 0 11.22 0 17 0 C18 1 18 1 18.11352539 3.77563477 C18.10828857 4.98533936 18.10305176 6.19504395 18.09765625 7.44140625 C18.09515869 8.61646729 18.09266113 9.79152832 18.09008789 11.00219727 C18.08098389 12.50709717 18.07187988 14.01199707 18.0625 15.5625 C18.041875 20.326875 18.02125 25.09125 18 30 C27.57 30 37.14 30 47 30 C47 33.3 47 36.6 47 40 C31.49 40 15.98 40 0 40 C0 26.8 0 13.6 0 0 Z " fill="#C85CF6" transform="translate(335,118)"/>
<path d="M0 0 C5.61 0 11.22 0 17 0 C18 1 18 1 18.11352539 4.69360352 C18.11336624 6.33871292 18.10766988 7.98382731 18.09765625 9.62890625 C18.0962413 10.49313705 18.09482635 11.35736786 18.09336853 12.24778748 C18.08775239 15.01939292 18.07519719 17.7909188 18.0625 20.5625 C18.05748708 22.4368478 18.05292381 24.31119685 18.04882812 26.18554688 C18.03862681 30.79042021 18.01905467 35.3951206 18 40 C12.06 40 6.12 40 0 40 C0 26.8 0 13.6 0 0 Z " fill="#C85BF6" transform="translate(156,118)"/>
<path d="M0 0 C0.99 0.33 1.98 0.66 3 1 C4.03515625 3.109375 4.03515625 3.109375 5.0625 5.75 C7.88240829 11.82498762 11.89463639 13.74753575 18 16 C15.85656766 18.38972736 14.11102886 19.45290562 11.125 20.5625 C5.74128667 23.07556176 4.10124368 27.70648227 2 33 C1.34 33 0.68 33 0 33 C-0.67119549 31.5437455 -1.33681807 30.08492133 -2 28.625 C-2.37125 27.81289062 -2.7425 27.00078125 -3.125 26.1640625 C-4 24 -4 24 -4 22 C-4.86625 21.731875 -5.7325 21.46375 -6.625 21.1875 C-9.91791964 20.02888013 -12.91127875 18.61790161 -16 17 C-12.59780735 14.25207517 -8.51535412 11 -4 11 C-3.79503906 10.37351563 -3.59007812 9.74703125 -3.37890625 9.1015625 C-3.10949219 8.28429687 -2.84007812 7.46703125 -2.5625 6.625 C-2.29566406 5.81289062 -2.02882813 5.00078125 -1.75390625 4.1640625 C-1 2 -1 2 0 0 Z " fill="#C95AF9" transform="translate(32,124)"/>
<path d="M0 0 C2.87121002 2.69427271 4.3882549 5.39276097 6 9 C6 9.66 6 10.32 6 11 C7.3303125 11.4021875 7.3303125 11.4021875 8.6875 11.8125 C11.76877548 12.91710819 14.26221405 14.22849144 17 16 C14.45217026 18.97246802 11.54659117 20.41535288 8 22 C7.34 22 6.68 22 6 22 C5.731875 22.886875 5.46375 23.77375 5.1875 24.6875 C4.08289181 27.76877548 2.77150856 30.26221405 1 33 C-0.94902168 30.5637229 -2.25796446 28.43247819 -3.5625 25.5625 C-6.22079545 20.68720715 -11.07037626 19.04146632 -16 17 C-13.85656766 14.61027264 -12.11102886 13.54709438 -9.125 12.4375 C-3.74128667 9.92443824 -2.10124368 5.29351773 0 0 Z " fill="#CC58FC" transform="translate(59,99)"/>
<path d="M0 0 C3 1 3 1 3.88671875 2.70703125 C4.15097656 3.40183594 4.41523437 4.09664062 4.6875 4.8125 C6.68379018 9.17302404 9.06171396 10.57357233 13.390625 12.40625 C13.92171875 12.6021875 14.4528125 12.798125 15 13 C14 16 14 16 12.29296875 16.88671875 C11.59816406 17.15097656 10.90335938 17.41523438 10.1875 17.6875 C5.82697596 19.68379018 4.42642767 22.06171396 2.59375 26.390625 C2.3978125 26.92171875 2.201875 27.4528125 2 28 C1.34 28 0.68 28 0 28 C-0.18433594 27.39671875 -0.36867188 26.7934375 -0.55859375 26.171875 C-2.39264254 21.09310418 -2.39264254 21.09310418 -6.26953125 17.51171875 C-8.49123381 16.5495641 -10.68534217 15.70725656 -13 15 C-13 14.34 -13 13.68 -13 13 C-12.39671875 12.81566406 -11.7934375 12.63132813 -11.171875 12.44140625 C-6.09310418 10.60735746 -6.09310418 10.60735746 -2.51171875 6.73046875 C-1.5495641 4.50876619 -0.70725656 2.31465783 0 0 Z " fill="#CB58FA" transform="translate(63,132)"/>
<path d="M0 0 C5.383125 -0.04125 10.76625 -0.0825 16.3125 -0.125 C17.98739502 -0.14320801 19.66229004 -0.16141602 21.38793945 -0.18017578 C29.47014348 -0.23006338 37.09273757 0.08079306 45 2 C45 2.33 45 2.66 45 3 C43.02090602 3.02686553 41.04171029 3.04633375 39.0625 3.0625 C37.96035156 3.07410156 36.85820313 3.08570312 35.72265625 3.09765625 C33 3 33 3 32 2 C29.71011219 1.84111908 27.41556559 1.74861927 25.12109375 1.68359375 C24.4344313 1.66281265 23.74776886 1.64203156 23.04029846 1.62062073 C20.83947065 1.55505857 18.63852025 1.49620985 16.4375 1.4375 C14.94855486 1.39432108 13.45962227 1.350707 11.97070312 1.30664062 C8.31393447 1.1993707 4.65702682 1.09812228 1 1 C1.16242188 2.04671875 1.32484375 3.0934375 1.4921875 4.171875 C2.24170311 10.18389066 2.14525451 16.20065231 2.125 22.25 C2.12886719 23.42046875 2.13273437 24.5909375 2.13671875 25.796875 C2.13478516 27.48296875 2.13478516 27.48296875 2.1328125 29.203125 C2.13112061 30.72921387 2.13112061 30.72921387 2.12939453 32.28613281 C2 35 2 35 1 39 C5.95 39 10.9 39 16 39 C16 36.36 16 33.72 16 31 C16.33 31 16.66 31 17 31 C17 33.97 17 36.94 17 40 C11.39 40 5.78 40 0 40 C0 26.8 0 13.6 0 0 Z " fill="#BF6DE2" transform="translate(85,118)"/>
<path d="M0 0 C7.59 0 15.18 0 23 0 C23 2.97 23 5.94 23 9 C15.08 9 7.16 9 -1 9 C-1 10.65 -1 12.3 -1 14 C-2.5 12.625 -2.5 12.625 -4 11 C-4 10.34 -4 9.68 -4 9 C-0.69711664 6.79807776 0.27462727 6.76040032 4.10546875 6.8046875 C5.08837891 6.81113281 6.07128906 6.81757813 7.08398438 6.82421875 C8.10814453 6.84097656 9.13230469 6.85773438 10.1875 6.875 C11.22326172 6.88402344 12.25902344 6.89304688 13.32617188 6.90234375 C15.88434685 6.9259214 18.44205748 6.9588297 21 7 C21 5.35 21 3.7 21 2 C19.90300781 2.01160156 18.80601562 2.02320313 17.67578125 2.03515625 C16.22135588 2.04453964 14.76692865 2.05363925 13.3125 2.0625 C12.2306543 2.07506836 12.2306543 2.07506836 11.12695312 2.08789062 C7.28444618 2.10543632 3.73360474 1.93524221 0 1 C0 0.67 0 0.34 0 0 Z " fill="#BC6AE4" transform="translate(416,134)"/>
<path d="M0 0 C6.1055471 -0.02464513 12.21106551 -0.04283371 18.31665039 -0.05493164 C20.39543156 -0.05997288 22.47420916 -0.06680574 24.55297852 -0.07543945 C27.53402586 -0.08751422 30.51502649 -0.09323024 33.49609375 -0.09765625 C34.89921059 -0.10539818 34.89921059 -0.10539818 36.33067322 -0.11329651 C37.19149002 -0.11337204 38.05230682 -0.11344757 38.93920898 -0.11352539 C40.08171364 -0.11685631 40.08171364 -0.11685631 41.24729919 -0.12025452 C43 0 43 0 44 1 C44 3.64 44 6.28 44 9 C35.09 9 26.18 9 17 9 C17 8.67 17 8.34 17 8 C24.26 8 31.52 8 39 8 C39 5.69 39 3.38 39 1 C26.13 1 13.26 1 0 1 C0 0.67 0 0.34 0 0 Z " fill="#C65DF6" transform="translate(399,119)"/>
<path d="M0 0 C12.85617513 -0.68667998 12.85617513 -0.68667998 16.75 1.5 C19.89904301 4.99893668 19.84502268 7.35068032 20 12 C24.62 12 29.24 12 34 12 C33.690625 10.948125 33.38125 9.89625 33.0625 8.8125 C32.24314906 5.87247604 31.54516069 2.99838377 31 0 C34 2 34 2 34.73046875 4.6015625 C35.15364583 7.40104167 35.57682292 10.20052083 36 13 C30.39 13 24.78 13 19 13 C18.05598958 10.68880208 17.11197917 8.37760417 16.16796875 6.06640625 C15.11596912 3.66627512 15.11596912 3.66627512 12 3 C9.77425665 2.77548542 7.54418481 2.59217122 5.3125 2.4375 C4.13300781 2.35371094 2.95351562 2.26992187 1.73828125 2.18359375 C0.83464844 2.12300781 -0.06898437 2.06242188 -1 2 C-0.67 1.34 -0.34 0.68 0 0 Z " fill="#BB68E0" transform="translate(103,145)"/>
<path d="M0 0 C2.475 0.495 2.475 0.495 5 1 C5 2.98 5 4.96 5 7 C-2.18794717 10.88283501 -6.90846172 12.72442619 -15 11 C-15.33 10.01 -15.66 9.02 -16 8 C-12.53287889 6.84429296 -9.4585044 6.67164707 -5.8125 6.4375 C-4.54019531 6.35371094 -3.26789063 6.26992187 -1.95703125 6.18359375 C-0.98121094 6.12300781 -0.00539063 6.06242188 1 6 C1.6814823 4.10820797 1.6814823 4.10820797 2 2 C1.34 1.34 0.68 0.68 0 0 Z " fill="#C458F6" transform="translate(298,129)"/>
<path d="M0 0 C2.94678433 2.94678433 4.32041919 5.24093818 6 9 C6 9.66 6 10.32 6 11 C7.3303125 11.4021875 7.3303125 11.4021875 8.6875 11.8125 C11.76877548 12.91710819 14.26221405 14.22849144 17 16 C16.67 16.66 16.34 17.32 16 18 C15.34 18 14.68 18 14 18 C13.5875 17.566875 13.175 17.13375 12.75 16.6875 C10.95475155 14.78371153 10.95475155 14.78371153 7.9375 13.5 C5 12 5 12 3 9 C2.34 9 1.68 9 1 9 C1 8.34 1 7.68 1 7 C0.01 7.495 0.01 7.495 -1 8 C-1.33 8.99 -1.66 9.98 -2 11 C-2.99 10.67 -3.98 10.34 -5 10 C-3.35 6.7 -1.7 3.4 0 0 Z " fill="#C063E5" transform="translate(59,99)"/>
<path d="M0 0 C4.875 3.625 4.875 3.625 6 7 C6.39359099 12.21508057 5.84815046 15.56954373 3 20 C2.01 20.33 1.02 20.66 0 21 C0.495 19.515 0.495 19.515 1 18 C1.66 18 2.32 18 3 18 C2.835 17.175 2.67 16.35 2.5 15.5 C2.11358366 12.79508564 1.98686634 10.56755828 2.0625 7.875 C2.00642319 4.39823771 1.87896659 2.81844988 0 0 Z " fill="#B768DF" transform="translate(241,122)"/>
<path d="M0 0 C0.495 0.7425 0.99 1.485 1.5 2.25 C4.59875158 5.65862674 7.82766134 7.18726063 12 9 C11.67 9.99 11.34 10.98 11 12 C7.4375 13.1875 7.4375 13.1875 4 14 C4.33 11.69 4.66 9.38 5 7 C3.35 6.67 1.7 6.34 0 6 C-1.125 2.25 -1.125 2.25 0 0 Z " fill="#C05DE8" transform="translate(66,136)"/>
<path d="M0 0 C0.33 0.66 0.66 1.32 1 2 C0.01 2.99 -0.98 3.98 -2 5 C-0.68 5.33 0.64 5.66 2 6 C1.34 7.32 0.68 8.64 0 10 C-4.455 8.02 -4.455 8.02 -9 6 C-9 5.34 -9 4.68 -9 4 C-6.03 2.68 -3.06 1.36 0 0 Z " fill="#BF64EA" transform="translate(59,141)"/>
<path d="M0 0 C0 3 0 3 -1.5 4.6875 C-1.995 5.120625 -2.49 5.55375 -3 6 C-1.35 6.99 0.3 7.98 2 9 C1.67 9.99 1.34 10.98 1 12 C-2.63 10.02 -6.26 8.04 -10 6 C-7.43833199 3.43833199 -6.44696024 2.55445594 -3.3125 1.3125 C-1.6728125 0.6628125 -1.6728125 0.6628125 0 0 Z " fill="#C064E7" transform="translate(53,110)"/>
<path d="M0 0 C3.26460973 1.80412643 4.88929795 2.83394693 7 6 C7.6258865 10.25602821 8.19444625 15.04810004 5.87890625 18.83203125 C4.5 20.1875 4.5 20.1875 2 22 C2.33 20.68 2.66 19.36 3 18 C3.66 18 4.32 18 5 18 C5.02708567 16.39592672 5.04643483 14.7917215 5.0625 13.1875 C5.07410156 12.29417969 5.08570313 11.40085938 5.09765625 10.48046875 C5.11009967 7.86586209 5.11009967 7.86586209 4 5 C1.99983534 3.79117904 1.99983534 3.79117904 0 3 C0 2.01 0 1.02 0 0 Z " fill="#BB6AE0" transform="translate(311,121)"/>
<path d="M0 0 C0.99 0.33 1.98 0.66 3 1 C4.1875 4.5625 4.1875 4.5625 5 8 C4.38125 7.67 3.7625 7.34 3.125 7 C1.08981656 5.85806765 1.08981656 5.85806765 -1 6 C-1.66 7.98 -2.32 9.96 -3 12 C-4.65 12.33 -6.3 12.66 -8 13 C-7.37480469 12.7628125 -6.74960937 12.525625 -6.10546875 12.28125 C-3.41953642 10.64676799 -3.1498711 9.48162194 -2.3125 6.5 C-1.01162791 2.02325581 -1.01162791 2.02325581 0 0 Z " fill="#B863DC" transform="translate(32,124)"/>
<path d="M0 0 C1.32 0 2.64 0 4 0 C4.66 0.99 5.32 1.98 6 3 C6.66 3 7.32 3 8 3 C7.39816251 5.02045442 6.72693904 7.02111039 6 9 C5.01 9.495 5.01 9.495 4 10 C3.32845067 8.71086513 2.66291141 7.41859796 2 6.125 C1.62875 5.40570313 1.2575 4.68640625 0.875 3.9453125 C0 2 0 2 0 0 Z " fill="#BE66E4" transform="translate(55,122)"/>
<path d="M0 0 C1.258125 0.12375 2.51625 0.2475 3.8125 0.375 C4.87404297 0.47941406 4.87404297 0.47941406 5.95703125 0.5859375 C8 1 8 1 11 3 C10.505 3.474375 10.01 3.94875 9.5 4.4375 C7.88457803 5.75923698 7.88457803 5.75923698 8 7 C6.35 7 4.7 7 3 7 C2.67 6.01 2.34 5.02 2 4 C2.66 4 3.32 4 4 4 C4 3.34 4 2.68 4 2 C2.68 1.67 1.36 1.34 0 1 C0 0.67 0 0.34 0 0 Z " fill="#C55DF0" transform="translate(230,119)"/>
<path d="M0 0 C0.66 0 1.32 0 2 0 C2.33 0.66 2.66 1.32 3 2 C4.64363134 2.72159424 6.31050386 3.39351421 8 4 C7.67 5.65 7.34 7.3 7 9 C6.01 9.33 5.02 9.66 4 10 C2.68 6.7 1.36 3.4 0 0 Z " fill="#BB65E6" transform="translate(28,147)"/>
<path d="M0 0 C1.65 0.33 3.3 0.66 5 1 C5.04254356 2.99954746 5.04080783 5.00041636 5 7 C4 8 4 8 1.27734375 8.09765625 C-0.37587891 8.08025391 -0.37587891 8.08025391 -2.0625 8.0625 C-3.16722656 8.05347656 -4.27195312 8.04445312 -5.41015625 8.03515625 C-6.69212891 8.01775391 -6.69212891 8.01775391 -8 8 C-8 7.67 -8 7.34 -8 7 C-3.545 6.505 -3.545 6.505 1 6 C1.33 4.68 1.66 3.36 2 2 C1.34 1.34 0.68 0.68 0 0 Z " fill="#BD64E3" transform="translate(298,129)"/>
<path d="M0 0 C1.32 0 2.64 0 4 0 C4.103125 0.94875 4.20625 1.8975 4.3125 2.875 C4.68539295 6.29107501 4.68539295 6.29107501 8 8 C2.25 7.25 2.25 7.25 0 5 C-0.125 2.375 -0.125 2.375 0 0 Z " fill="#C05EEF" transform="translate(98,130)"/>
<path d="M0 0 C3.77639718 0.51032394 5.44722581 1.20766929 8 4 C6.71086513 4.67154933 5.41859796 5.33708859 4.125 6 C3.40570313 6.37125 2.68640625 6.7425 1.9453125 7.125 C0 8 0 8 -2 8 C-2 7.34 -2 6.68 -2 6 C-0.02 5.34 1.96 4.68 4 4 C2.68 2.68 1.36 1.36 0 0 Z " fill="#B367D5" transform="translate(42,137)"/>
<path d="M0 0 C0.66 0.33 1.32 0.66 2 1 C2.2295711 4.36704285 2.33943529 6.41370268 0.625 9.375 C0.08875 9.91125 -0.4475 10.4475 -1 11 C-1.66 11 -2.32 11 -3 11 C-2.67 10.01 -2.34 9.02 -2 8 C-1.34 8 -0.68 8 0 8 C-0.185625 7.05125 -0.37125 6.1025 -0.5625 5.125 C-1 2 -1 2 0 0 Z " fill="#BF64EA" transform="translate(244,132)"/>
<path d="M0 0 C1.65 0 3.3 0 5 0 C1.46416382 2.90443686 1.46416382 2.90443686 -1.125 3.4375 C-3.215901 3.83648408 -3.215901 3.83648408 -4.25 6.0625 C-4.4975 6.701875 -4.745 7.34125 -5 8 C-5.38218767 6.34385343 -5.71395102 4.67542976 -6 3 C-5 2 -5 2 -2.4375 1.9375 C-1.2309375 1.9684375 -1.2309375 1.9684375 0 2 C0 1.34 0 0.68 0 0 Z " fill="#BA61E4" transform="translate(68,117)"/>
<path d="M0 0 C0.99 0.33 1.98 0.66 3 1 C2.65120368 4.25543229 1.97866739 5.01873107 -0.5625 7.25 C-1.7690625 8.11625 -1.7690625 8.11625 -3 9 C-2.01 6.03 -1.02 3.06 0 0 Z " fill="#C16FEB" transform="translate(63,132)"/>
<path d="M0 0 C0.33 0.66 0.66 1.32 1 2 C2.99541868 2.68025637 4.99617991 3.34490497 7 4 C8.69207001 4.9563874 10.36816893 5.94410931 12 7 C11.67 7.66 11.34 8.32 11 9 C10.34 9 9.68 9 9 9 C8.38125 8.3503125 8.38125 8.3503125 7.75 7.6875 C5.44703684 5.46678553 2.88157583 4.34473539 0 3 C0 2.01 0 1.02 0 0 Z " fill="#B469DA" transform="translate(64,108)"/>
<path d="M0 0 C0.66 0 1.32 0 2 0 C2.33 1.65 2.66 3.3 3 5 C3.66 5 4.32 5 5 5 C5 4.01 5 3.02 5 2 C5.66 2 6.32 2 7 2 C6.34 3.98 5.68 5.96 5 8 C4.34 8 3.68 8 3 8 C2.01 5.36 1.02 2.72 0 0 Z " fill="#B86BDE" transform="translate(60,152)"/>
<path d="M0 0 C2.97 0 5.94 0 9 0 C8.34 1.65 7.68 3.3 7 5 C6.01 5 5.02 5 4 5 C3.67 4.01 3.34 3.02 3 2 C2.01 1.34 1.02 0.68 0 0 Z " fill="#C564F0" transform="translate(118,129)"/>
<path d="M0 0 C0.66 0.33 1.32 0.66 2 1 C1.01 1.33 0.02 1.66 -1 2 C-0.67 3.32 -0.34 4.64 0 6 C-1.98 5.34 -3.96 4.68 -6 4 C-4.03617993 2.49440461 -2.21736634 1.10868317 0 0 Z " fill="#BA5EDF" transform="translate(22,137)"/>
<path d="M0 0 C0.66 0.66 1.32 1.32 2 2 C1.625 5.125 1.625 5.125 1 8 C-1 6 -1 6 -1.1875 3.4375 C-1 1 -1 1 0 0 Z " fill="#C362F1" transform="translate(413,128)"/>
</svg>
